<mxfile host="Electron" modified="2023-04-15T05:19:47.918Z" agent="Mozilla/5.0 (Windows NT 10.0; Win64; x64) AppleWebKit/537.36 (KHTML, like Gecko) draw.io/21.1.2 Chrome/106.0.5249.199 Electron/21.4.3 Safari/537.36" etag="AlLR6Os63ZHEi7FFOdaJ" version="21.1.2" type="device">
  <diagram name="Página-1" id="aUL2StrygrHeIbLncTos">
    <mxGraphModel dx="1480" dy="673" grid="1" gridSize="10" guides="1" tooltips="1" connect="1" arrows="1" fold="1" page="1" pageScale="1" pageWidth="827" pageHeight="1169" math="0" shadow="0">
      <root>
        <mxCell id="0" />
        <mxCell id="1" parent="0" />
        <mxCell id="OwYhQeOUN2ve-CkDYoAG-1" value="CLIENTES" style="rounded=1;whiteSpace=wrap;html=1;" vertex="1" parent="1">
          <mxGeometry x="160" y="220" width="120" height="60" as="geometry" />
        </mxCell>
        <mxCell id="OwYhQeOUN2ve-CkDYoAG-2" value="id_cliente" style="ellipse;whiteSpace=wrap;html=1;" vertex="1" parent="1">
          <mxGeometry x="30" y="200" width="90" height="40" as="geometry" />
        </mxCell>
        <mxCell id="OwYhQeOUN2ve-CkDYoAG-3" value="Nombre" style="ellipse;whiteSpace=wrap;html=1;" vertex="1" parent="1">
          <mxGeometry x="30" y="120" width="90" height="40" as="geometry" />
        </mxCell>
        <mxCell id="OwYhQeOUN2ve-CkDYoAG-4" value="Apellido" style="ellipse;whiteSpace=wrap;html=1;" vertex="1" parent="1">
          <mxGeometry x="120" y="80" width="90" height="40" as="geometry" />
        </mxCell>
        <mxCell id="OwYhQeOUN2ve-CkDYoAG-5" value="Email" style="ellipse;whiteSpace=wrap;html=1;" vertex="1" parent="1">
          <mxGeometry x="230" y="80" width="90" height="40" as="geometry" />
        </mxCell>
        <mxCell id="OwYhQeOUN2ve-CkDYoAG-9" value="" style="endArrow=none;html=1;rounded=0;entryX=0.422;entryY=1;entryDx=0;entryDy=0;entryPerimeter=0;exitX=0.7;exitY=-0.05;exitDx=0;exitDy=0;exitPerimeter=0;" edge="1" parent="1" source="OwYhQeOUN2ve-CkDYoAG-1" target="OwYhQeOUN2ve-CkDYoAG-5">
          <mxGeometry width="50" height="50" relative="1" as="geometry">
            <mxPoint x="240" y="240" as="sourcePoint" />
            <mxPoint x="290" y="190" as="targetPoint" />
          </mxGeometry>
        </mxCell>
        <mxCell id="OwYhQeOUN2ve-CkDYoAG-10" value="" style="endArrow=none;html=1;rounded=0;entryX=0.5;entryY=1;entryDx=0;entryDy=0;exitX=0.325;exitY=-0.033;exitDx=0;exitDy=0;exitPerimeter=0;" edge="1" parent="1" source="OwYhQeOUN2ve-CkDYoAG-1" target="OwYhQeOUN2ve-CkDYoAG-4">
          <mxGeometry width="50" height="50" relative="1" as="geometry">
            <mxPoint x="182" y="240" as="sourcePoint" />
            <mxPoint x="210" y="120" as="targetPoint" />
          </mxGeometry>
        </mxCell>
        <mxCell id="OwYhQeOUN2ve-CkDYoAG-11" value="" style="endArrow=none;html=1;rounded=0;entryX=1;entryY=1;entryDx=0;entryDy=0;" edge="1" parent="1" target="OwYhQeOUN2ve-CkDYoAG-2">
          <mxGeometry width="50" height="50" relative="1" as="geometry">
            <mxPoint x="160" y="270" as="sourcePoint" />
            <mxPoint x="210" y="220" as="targetPoint" />
          </mxGeometry>
        </mxCell>
        <mxCell id="OwYhQeOUN2ve-CkDYoAG-12" value="" style="endArrow=none;html=1;rounded=0;entryX=1;entryY=1;entryDx=0;entryDy=0;exitX=0;exitY=0.133;exitDx=0;exitDy=0;exitPerimeter=0;" edge="1" parent="1" source="OwYhQeOUN2ve-CkDYoAG-1" target="OwYhQeOUN2ve-CkDYoAG-3">
          <mxGeometry width="50" height="50" relative="1" as="geometry">
            <mxPoint x="170" y="240" as="sourcePoint" />
            <mxPoint x="220" y="190" as="targetPoint" />
          </mxGeometry>
        </mxCell>
        <mxCell id="OwYhQeOUN2ve-CkDYoAG-13" value="PRODUCTOS" style="rounded=1;whiteSpace=wrap;html=1;" vertex="1" parent="1">
          <mxGeometry x="400" y="220" width="120" height="60" as="geometry" />
        </mxCell>
        <mxCell id="OwYhQeOUN2ve-CkDYoAG-14" value="id_producto" style="ellipse;whiteSpace=wrap;html=1;" vertex="1" parent="1">
          <mxGeometry x="400" y="80" width="90" height="40" as="geometry" />
        </mxCell>
        <mxCell id="OwYhQeOUN2ve-CkDYoAG-15" value="Precio" style="ellipse;whiteSpace=wrap;html=1;" vertex="1" parent="1">
          <mxGeometry x="520" y="80" width="80" height="40" as="geometry" />
        </mxCell>
        <mxCell id="OwYhQeOUN2ve-CkDYoAG-16" value="Descripción" style="ellipse;whiteSpace=wrap;html=1;" vertex="1" parent="1">
          <mxGeometry x="520" y="155" width="120" height="45" as="geometry" />
        </mxCell>
        <mxCell id="OwYhQeOUN2ve-CkDYoAG-18" value="" style="endArrow=none;html=1;rounded=0;entryX=0.5;entryY=1;entryDx=0;entryDy=0;" edge="1" parent="1" target="OwYhQeOUN2ve-CkDYoAG-14">
          <mxGeometry width="50" height="50" relative="1" as="geometry">
            <mxPoint x="445" y="220" as="sourcePoint" />
            <mxPoint x="440" y="270" as="targetPoint" />
          </mxGeometry>
        </mxCell>
        <mxCell id="OwYhQeOUN2ve-CkDYoAG-19" value="" style="endArrow=none;html=1;rounded=0;entryX=0;entryY=1;entryDx=0;entryDy=0;" edge="1" parent="1" target="OwYhQeOUN2ve-CkDYoAG-15">
          <mxGeometry width="50" height="50" relative="1" as="geometry">
            <mxPoint x="460" y="220" as="sourcePoint" />
            <mxPoint x="510" y="170" as="targetPoint" />
          </mxGeometry>
        </mxCell>
        <mxCell id="OwYhQeOUN2ve-CkDYoAG-20" value="" style="endArrow=none;html=1;rounded=0;exitX=0.987;exitY=0.036;exitDx=0;exitDy=0;exitPerimeter=0;" edge="1" parent="1" source="OwYhQeOUN2ve-CkDYoAG-13">
          <mxGeometry width="50" height="50" relative="1" as="geometry">
            <mxPoint x="520" y="250" as="sourcePoint" />
            <mxPoint x="560" y="200" as="targetPoint" />
          </mxGeometry>
        </mxCell>
        <mxCell id="OwYhQeOUN2ve-CkDYoAG-21" value="obtienen" style="rhombus;whiteSpace=wrap;html=1;strokeColor=#FF9933;shadow=1;fillColor=#FFCC99;" vertex="1" parent="1">
          <mxGeometry x="300" y="225" width="80" height="50" as="geometry" />
        </mxCell>
        <mxCell id="OwYhQeOUN2ve-CkDYoAG-23" value="" style="endArrow=none;html=1;rounded=0;entryX=1;entryY=0.5;entryDx=0;entryDy=0;exitX=0;exitY=0.5;exitDx=0;exitDy=0;" edge="1" parent="1" source="OwYhQeOUN2ve-CkDYoAG-21" target="OwYhQeOUN2ve-CkDYoAG-1">
          <mxGeometry width="50" height="50" relative="1" as="geometry">
            <mxPoint x="480" y="360" as="sourcePoint" />
            <mxPoint x="530" y="310" as="targetPoint" />
          </mxGeometry>
        </mxCell>
        <mxCell id="OwYhQeOUN2ve-CkDYoAG-24" value="" style="endArrow=none;html=1;rounded=0;exitX=1;exitY=0.5;exitDx=0;exitDy=0;entryX=0;entryY=0.5;entryDx=0;entryDy=0;" edge="1" parent="1" source="OwYhQeOUN2ve-CkDYoAG-21" target="OwYhQeOUN2ve-CkDYoAG-13">
          <mxGeometry width="50" height="50" relative="1" as="geometry">
            <mxPoint x="480" y="360" as="sourcePoint" />
            <mxPoint x="530" y="310" as="targetPoint" />
          </mxGeometry>
        </mxCell>
        <mxCell id="OwYhQeOUN2ve-CkDYoAG-25" value="VENTAS" style="rounded=1;whiteSpace=wrap;html=1;" vertex="1" parent="1">
          <mxGeometry x="560" y="360" width="120" height="60" as="geometry" />
        </mxCell>
        <mxCell id="OwYhQeOUN2ve-CkDYoAG-27" value="id_venta" style="ellipse;whiteSpace=wrap;html=1;" vertex="1" parent="1">
          <mxGeometry x="600" y="280" width="80" height="40" as="geometry" />
        </mxCell>
        <mxCell id="OwYhQeOUN2ve-CkDYoAG-28" value="id_factura" style="ellipse;whiteSpace=wrap;html=1;" vertex="1" parent="1">
          <mxGeometry x="720" y="280" width="83" height="40" as="geometry" />
        </mxCell>
        <mxCell id="OwYhQeOUN2ve-CkDYoAG-29" value="id_prodcuto" style="ellipse;whiteSpace=wrap;html=1;" vertex="1" parent="1">
          <mxGeometry x="723" y="360" width="80" height="45" as="geometry" />
        </mxCell>
        <mxCell id="OwYhQeOUN2ve-CkDYoAG-30" value="Cantidad" style="ellipse;whiteSpace=wrap;html=1;" vertex="1" parent="1">
          <mxGeometry x="723" y="440" width="77" height="40" as="geometry" />
        </mxCell>
        <mxCell id="OwYhQeOUN2ve-CkDYoAG-31" value="" style="endArrow=none;html=1;rounded=0;entryX=0;entryY=0.5;entryDx=0;entryDy=0;" edge="1" parent="1" target="OwYhQeOUN2ve-CkDYoAG-28">
          <mxGeometry width="50" height="50" relative="1" as="geometry">
            <mxPoint x="670" y="360" as="sourcePoint" />
            <mxPoint x="720" y="310" as="targetPoint" />
          </mxGeometry>
        </mxCell>
        <mxCell id="OwYhQeOUN2ve-CkDYoAG-32" value="" style="endArrow=none;html=1;rounded=0;entryX=0.5;entryY=1;entryDx=0;entryDy=0;" edge="1" parent="1" target="OwYhQeOUN2ve-CkDYoAG-27">
          <mxGeometry width="50" height="50" relative="1" as="geometry">
            <mxPoint x="640" y="360" as="sourcePoint" />
            <mxPoint x="660" y="420" as="targetPoint" />
          </mxGeometry>
        </mxCell>
        <mxCell id="OwYhQeOUN2ve-CkDYoAG-33" value="" style="endArrow=none;html=1;rounded=0;entryX=0.014;entryY=0.675;entryDx=0;entryDy=0;entryPerimeter=0;" edge="1" parent="1" target="OwYhQeOUN2ve-CkDYoAG-29">
          <mxGeometry width="50" height="50" relative="1" as="geometry">
            <mxPoint x="680" y="390" as="sourcePoint" />
            <mxPoint x="730" y="340" as="targetPoint" />
          </mxGeometry>
        </mxCell>
        <mxCell id="OwYhQeOUN2ve-CkDYoAG-34" value="" style="endArrow=none;html=1;rounded=0;entryX=0.014;entryY=0.388;entryDx=0;entryDy=0;entryPerimeter=0;" edge="1" parent="1" target="OwYhQeOUN2ve-CkDYoAG-30">
          <mxGeometry width="50" height="50" relative="1" as="geometry">
            <mxPoint x="670" y="420" as="sourcePoint" />
            <mxPoint x="720" y="370" as="targetPoint" />
          </mxGeometry>
        </mxCell>
        <mxCell id="OwYhQeOUN2ve-CkDYoAG-35" value="contienen" style="rhombus;whiteSpace=wrap;html=1;strokeColor=#FF9933;shadow=1;fillColor=#FFCC99;" vertex="1" parent="1">
          <mxGeometry x="440" y="357.5" width="80" height="50" as="geometry" />
        </mxCell>
        <mxCell id="OwYhQeOUN2ve-CkDYoAG-36" value="" style="endArrow=none;html=1;rounded=0;exitX=0.5;exitY=0;exitDx=0;exitDy=0;" edge="1" parent="1" source="OwYhQeOUN2ve-CkDYoAG-35">
          <mxGeometry width="50" height="50" relative="1" as="geometry">
            <mxPoint x="430" y="380" as="sourcePoint" />
            <mxPoint x="480" y="280" as="targetPoint" />
          </mxGeometry>
        </mxCell>
        <mxCell id="OwYhQeOUN2ve-CkDYoAG-37" value="" style="endArrow=none;html=1;rounded=0;exitX=1;exitY=0.5;exitDx=0;exitDy=0;" edge="1" parent="1" source="OwYhQeOUN2ve-CkDYoAG-35">
          <mxGeometry width="50" height="50" relative="1" as="geometry">
            <mxPoint x="520" y="380" as="sourcePoint" />
            <mxPoint x="560" y="383" as="targetPoint" />
          </mxGeometry>
        </mxCell>
        <mxCell id="OwYhQeOUN2ve-CkDYoAG-39" value="FACTURAS" style="rounded=1;whiteSpace=wrap;html=1;" vertex="1" parent="1">
          <mxGeometry x="490" y="520" width="120" height="60" as="geometry" />
        </mxCell>
        <mxCell id="OwYhQeOUN2ve-CkDYoAG-40" value="id_factura" style="ellipse;whiteSpace=wrap;html=1;" vertex="1" parent="1">
          <mxGeometry x="680" y="522.5" width="80" height="40" as="geometry" />
        </mxCell>
        <mxCell id="OwYhQeOUN2ve-CkDYoAG-41" value="Monto" style="ellipse;whiteSpace=wrap;html=1;" vertex="1" parent="1">
          <mxGeometry x="680" y="580" width="80" height="40" as="geometry" />
        </mxCell>
        <mxCell id="OwYhQeOUN2ve-CkDYoAG-42" value="Forma_de_Pago" style="ellipse;whiteSpace=wrap;html=1;" vertex="1" parent="1">
          <mxGeometry x="670" y="640" width="100" height="40" as="geometry" />
        </mxCell>
        <mxCell id="OwYhQeOUN2ve-CkDYoAG-43" value="Fecha_y_Hora" style="ellipse;whiteSpace=wrap;html=1;" vertex="1" parent="1">
          <mxGeometry x="620" y="700" width="100" height="40" as="geometry" />
        </mxCell>
        <mxCell id="OwYhQeOUN2ve-CkDYoAG-45" value="id_sucursal" style="ellipse;whiteSpace=wrap;html=1;" vertex="1" parent="1">
          <mxGeometry x="505" y="680" width="95" height="40" as="geometry" />
        </mxCell>
        <mxCell id="OwYhQeOUN2ve-CkDYoAG-46" value="id_empleado" style="ellipse;whiteSpace=wrap;html=1;" vertex="1" parent="1">
          <mxGeometry x="440" y="640" width="100" height="40" as="geometry" />
        </mxCell>
        <mxCell id="OwYhQeOUN2ve-CkDYoAG-47" value="EMPLEADOS" style="rounded=1;whiteSpace=wrap;html=1;" vertex="1" parent="1">
          <mxGeometry x="40" y="420" width="120" height="60" as="geometry" />
        </mxCell>
        <mxCell id="OwYhQeOUN2ve-CkDYoAG-48" value="id_empleado" style="ellipse;whiteSpace=wrap;html=1;" vertex="1" parent="1">
          <mxGeometry y="517.5" width="80" height="45" as="geometry" />
        </mxCell>
        <mxCell id="OwYhQeOUN2ve-CkDYoAG-49" value="Nombre" style="ellipse;whiteSpace=wrap;html=1;" vertex="1" parent="1">
          <mxGeometry x="40" y="570" width="85" height="40" as="geometry" />
        </mxCell>
        <mxCell id="OwYhQeOUN2ve-CkDYoAG-50" value="Apellido" style="ellipse;whiteSpace=wrap;html=1;" vertex="1" parent="1">
          <mxGeometry x="140" y="560" width="70" height="40" as="geometry" />
        </mxCell>
        <mxCell id="OwYhQeOUN2ve-CkDYoAG-51" value="Edad" style="ellipse;whiteSpace=wrap;html=1;" vertex="1" parent="1">
          <mxGeometry x="180" y="517.5" width="80" height="40" as="geometry" />
        </mxCell>
        <mxCell id="OwYhQeOUN2ve-CkDYoAG-52" value="Domicilio" style="ellipse;whiteSpace=wrap;html=1;" vertex="1" parent="1">
          <mxGeometry x="200" y="470" width="70" height="40" as="geometry" />
        </mxCell>
        <mxCell id="OwYhQeOUN2ve-CkDYoAG-53" value="SUCURSAL" style="rounded=1;whiteSpace=wrap;html=1;" vertex="1" parent="1">
          <mxGeometry x="280" y="640" width="120" height="60" as="geometry" />
        </mxCell>
        <mxCell id="OwYhQeOUN2ve-CkDYoAG-54" value="id_sucursal" style="ellipse;whiteSpace=wrap;html=1;" vertex="1" parent="1">
          <mxGeometry x="380" y="720" width="120" height="40" as="geometry" />
        </mxCell>
        <mxCell id="OwYhQeOUN2ve-CkDYoAG-55" value="Nombre" style="ellipse;whiteSpace=wrap;html=1;" vertex="1" parent="1">
          <mxGeometry x="320" y="800" width="120" height="40" as="geometry" />
        </mxCell>
        <mxCell id="OwYhQeOUN2ve-CkDYoAG-56" value="Dirección" style="ellipse;whiteSpace=wrap;html=1;" vertex="1" parent="1">
          <mxGeometry x="200" y="760" width="120" height="40" as="geometry" />
        </mxCell>
        <mxCell id="OwYhQeOUN2ve-CkDYoAG-57" value="CATEGORÍAS" style="rounded=1;whiteSpace=wrap;html=1;" vertex="1" parent="1">
          <mxGeometry x="701.5" y="100" width="120" height="60" as="geometry" />
        </mxCell>
        <mxCell id="OwYhQeOUN2ve-CkDYoAG-58" value="id_categoria" style="ellipse;whiteSpace=wrap;html=1;" vertex="1" parent="1">
          <mxGeometry x="314" y="140" width="100" height="40" as="geometry" />
        </mxCell>
        <mxCell id="OwYhQeOUN2ve-CkDYoAG-59" value="id_categoria" style="ellipse;whiteSpace=wrap;html=1;" vertex="1" parent="1">
          <mxGeometry x="716" y="20" width="87" height="40" as="geometry" />
        </mxCell>
        <mxCell id="OwYhQeOUN2ve-CkDYoAG-62" value="Nombre" style="ellipse;whiteSpace=wrap;html=1;" vertex="1" parent="1">
          <mxGeometry x="621.5" y="40" width="80" height="40" as="geometry" />
        </mxCell>
        <mxCell id="OwYhQeOUN2ve-CkDYoAG-63" value="" style="endArrow=none;html=1;rounded=0;entryX=0.487;entryY=-0.006;entryDx=0;entryDy=0;entryPerimeter=0;exitX=0.5;exitY=1;exitDx=0;exitDy=0;" edge="1" parent="1" source="OwYhQeOUN2ve-CkDYoAG-59" target="OwYhQeOUN2ve-CkDYoAG-57">
          <mxGeometry width="50" height="50" relative="1" as="geometry">
            <mxPoint x="762" y="70" as="sourcePoint" />
            <mxPoint x="500" y="140" as="targetPoint" />
          </mxGeometry>
        </mxCell>
        <mxCell id="OwYhQeOUN2ve-CkDYoAG-64" value="" style="endArrow=none;html=1;rounded=0;entryX=0.015;entryY=0.054;entryDx=0;entryDy=0;entryPerimeter=0;exitX=1;exitY=1;exitDx=0;exitDy=0;" edge="1" parent="1" source="OwYhQeOUN2ve-CkDYoAG-62" target="OwYhQeOUN2ve-CkDYoAG-57">
          <mxGeometry width="50" height="50" relative="1" as="geometry">
            <mxPoint x="710" y="140" as="sourcePoint" />
            <mxPoint x="760" y="90" as="targetPoint" />
          </mxGeometry>
        </mxCell>
        <mxCell id="OwYhQeOUN2ve-CkDYoAG-65" value="contiene" style="rhombus;whiteSpace=wrap;html=1;strokeColor=#FF9933;shadow=1;fillColor=#FFCC99;" vertex="1" parent="1">
          <mxGeometry x="719.5" y="220" width="80" height="50" as="geometry" />
        </mxCell>
        <mxCell id="OwYhQeOUN2ve-CkDYoAG-66" value="" style="endArrow=none;html=1;rounded=0;exitX=0.5;exitY=0;exitDx=0;exitDy=0;" edge="1" parent="1" source="OwYhQeOUN2ve-CkDYoAG-65">
          <mxGeometry width="50" height="50" relative="1" as="geometry">
            <mxPoint x="700" y="300" as="sourcePoint" />
            <mxPoint x="760" y="160" as="targetPoint" />
          </mxGeometry>
        </mxCell>
        <mxCell id="OwYhQeOUN2ve-CkDYoAG-67" value="" style="endArrow=none;html=1;rounded=0;entryX=0;entryY=0.5;entryDx=0;entryDy=0;exitX=0.999;exitY=0.413;exitDx=0;exitDy=0;exitPerimeter=0;" edge="1" parent="1" source="OwYhQeOUN2ve-CkDYoAG-13" target="OwYhQeOUN2ve-CkDYoAG-65">
          <mxGeometry width="50" height="50" relative="1" as="geometry">
            <mxPoint x="520" y="240" as="sourcePoint" />
            <mxPoint x="740" y="210" as="targetPoint" />
          </mxGeometry>
        </mxCell>
        <mxCell id="OwYhQeOUN2ve-CkDYoAG-68" value="" style="endArrow=none;html=1;rounded=0;entryX=0.679;entryY=1.05;entryDx=0;entryDy=0;entryPerimeter=0;" edge="1" parent="1" target="OwYhQeOUN2ve-CkDYoAG-58">
          <mxGeometry width="50" height="50" relative="1" as="geometry">
            <mxPoint x="410" y="220" as="sourcePoint" />
            <mxPoint x="520" y="270" as="targetPoint" />
          </mxGeometry>
        </mxCell>
        <mxCell id="OwYhQeOUN2ve-CkDYoAG-69" value="" style="endArrow=none;html=1;rounded=0;entryX=0.405;entryY=1.006;entryDx=0;entryDy=0;entryPerimeter=0;exitX=0.652;exitY=0.007;exitDx=0;exitDy=0;exitPerimeter=0;" edge="1" parent="1" source="OwYhQeOUN2ve-CkDYoAG-46" target="OwYhQeOUN2ve-CkDYoAG-39">
          <mxGeometry width="50" height="50" relative="1" as="geometry">
            <mxPoint x="480" y="680" as="sourcePoint" />
            <mxPoint x="530" y="630" as="targetPoint" />
          </mxGeometry>
        </mxCell>
        <mxCell id="OwYhQeOUN2ve-CkDYoAG-70" value="" style="endArrow=none;html=1;rounded=0;exitX=0.647;exitY=0.007;exitDx=0;exitDy=0;exitPerimeter=0;entryX=0.835;entryY=0.999;entryDx=0;entryDy=0;entryPerimeter=0;" edge="1" parent="1" source="OwYhQeOUN2ve-CkDYoAG-45" target="OwYhQeOUN2ve-CkDYoAG-39">
          <mxGeometry width="50" height="50" relative="1" as="geometry">
            <mxPoint x="480" y="680" as="sourcePoint" />
            <mxPoint x="590" y="580" as="targetPoint" />
          </mxGeometry>
        </mxCell>
        <mxCell id="OwYhQeOUN2ve-CkDYoAG-71" value="" style="endArrow=none;html=1;rounded=0;entryX=0;entryY=0.438;entryDx=0;entryDy=0;entryPerimeter=0;" edge="1" parent="1" target="OwYhQeOUN2ve-CkDYoAG-40">
          <mxGeometry width="50" height="50" relative="1" as="geometry">
            <mxPoint x="610" y="540" as="sourcePoint" />
            <mxPoint x="660" y="490" as="targetPoint" />
          </mxGeometry>
        </mxCell>
        <mxCell id="OwYhQeOUN2ve-CkDYoAG-72" value="" style="endArrow=none;html=1;rounded=0;entryX=-0.009;entryY=0.405;entryDx=0;entryDy=0;entryPerimeter=0;" edge="1" parent="1" target="OwYhQeOUN2ve-CkDYoAG-41">
          <mxGeometry width="50" height="50" relative="1" as="geometry">
            <mxPoint x="610" y="570" as="sourcePoint" />
            <mxPoint x="650" y="560" as="targetPoint" />
          </mxGeometry>
        </mxCell>
        <mxCell id="OwYhQeOUN2ve-CkDYoAG-73" value="" style="endArrow=none;html=1;rounded=0;entryX=0.054;entryY=0.264;entryDx=0;entryDy=0;entryPerimeter=0;exitX=0.957;exitY=0.99;exitDx=0;exitDy=0;exitPerimeter=0;" edge="1" parent="1" source="OwYhQeOUN2ve-CkDYoAG-39" target="OwYhQeOUN2ve-CkDYoAG-42">
          <mxGeometry width="50" height="50" relative="1" as="geometry">
            <mxPoint x="600" y="690" as="sourcePoint" />
            <mxPoint x="650" y="640" as="targetPoint" />
          </mxGeometry>
        </mxCell>
        <mxCell id="OwYhQeOUN2ve-CkDYoAG-74" value="" style="endArrow=none;html=1;rounded=0;exitX=0.339;exitY=-0.004;exitDx=0;exitDy=0;exitPerimeter=0;entryX=0.903;entryY=0.996;entryDx=0;entryDy=0;entryPerimeter=0;" edge="1" parent="1" source="OwYhQeOUN2ve-CkDYoAG-43" target="OwYhQeOUN2ve-CkDYoAG-39">
          <mxGeometry width="50" height="50" relative="1" as="geometry">
            <mxPoint x="600" y="670" as="sourcePoint" />
            <mxPoint x="600" y="580" as="targetPoint" />
          </mxGeometry>
        </mxCell>
        <mxCell id="OwYhQeOUN2ve-CkDYoAG-75" value="generan" style="rhombus;whiteSpace=wrap;html=1;strokeColor=#FF9933;shadow=1;fillColor=#FFCC99;" vertex="1" parent="1">
          <mxGeometry x="520" y="440" width="80" height="50" as="geometry" />
        </mxCell>
        <mxCell id="OwYhQeOUN2ve-CkDYoAG-76" value="" style="endArrow=none;html=1;rounded=0;entryX=0.662;entryY=1.004;entryDx=0;entryDy=0;entryPerimeter=0;exitX=1;exitY=0.5;exitDx=0;exitDy=0;" edge="1" parent="1" source="OwYhQeOUN2ve-CkDYoAG-75" target="OwYhQeOUN2ve-CkDYoAG-25">
          <mxGeometry width="50" height="50" relative="1" as="geometry">
            <mxPoint x="380" y="500" as="sourcePoint" />
            <mxPoint x="430" y="450" as="targetPoint" />
            <Array as="points">
              <mxPoint x="640" y="465" />
            </Array>
          </mxGeometry>
        </mxCell>
        <mxCell id="OwYhQeOUN2ve-CkDYoAG-77" value="" style="endArrow=none;html=1;rounded=0;entryX=0.5;entryY=1;entryDx=0;entryDy=0;" edge="1" parent="1" target="OwYhQeOUN2ve-CkDYoAG-75">
          <mxGeometry width="50" height="50" relative="1" as="geometry">
            <mxPoint x="560" y="520" as="sourcePoint" />
            <mxPoint x="610" y="470" as="targetPoint" />
          </mxGeometry>
        </mxCell>
        <mxCell id="OwYhQeOUN2ve-CkDYoAG-78" value="" style="endArrow=none;html=1;rounded=0;exitX=0.5;exitY=0;exitDx=0;exitDy=0;" edge="1" parent="1" source="OwYhQeOUN2ve-CkDYoAG-56">
          <mxGeometry width="50" height="50" relative="1" as="geometry">
            <mxPoint x="270" y="750" as="sourcePoint" />
            <mxPoint x="320" y="700" as="targetPoint" />
          </mxGeometry>
        </mxCell>
        <mxCell id="OwYhQeOUN2ve-CkDYoAG-79" value="" style="endArrow=none;html=1;rounded=0;exitX=0.333;exitY=0;exitDx=0;exitDy=0;exitPerimeter=0;" edge="1" parent="1" source="OwYhQeOUN2ve-CkDYoAG-55">
          <mxGeometry width="50" height="50" relative="1" as="geometry">
            <mxPoint x="310" y="750" as="sourcePoint" />
            <mxPoint x="360" y="700" as="targetPoint" />
          </mxGeometry>
        </mxCell>
        <mxCell id="OwYhQeOUN2ve-CkDYoAG-80" value="" style="endArrow=none;html=1;rounded=0;entryX=0.333;entryY=0;entryDx=0;entryDy=0;entryPerimeter=0;" edge="1" parent="1" target="OwYhQeOUN2ve-CkDYoAG-54">
          <mxGeometry width="50" height="50" relative="1" as="geometry">
            <mxPoint x="389" y="700" as="sourcePoint" />
            <mxPoint x="439" y="650" as="targetPoint" />
          </mxGeometry>
        </mxCell>
        <mxCell id="OwYhQeOUN2ve-CkDYoAG-81" value="" style="endArrow=none;html=1;rounded=0;entryX=0.31;entryY=0.996;entryDx=0;entryDy=0;entryPerimeter=0;" edge="1" parent="1" target="OwYhQeOUN2ve-CkDYoAG-47">
          <mxGeometry width="50" height="50" relative="1" as="geometry">
            <mxPoint x="40" y="517.5" as="sourcePoint" />
            <mxPoint x="90" y="467.5" as="targetPoint" />
          </mxGeometry>
        </mxCell>
        <mxCell id="OwYhQeOUN2ve-CkDYoAG-82" value="" style="endArrow=none;html=1;rounded=0;" edge="1" parent="1" source="OwYhQeOUN2ve-CkDYoAG-49">
          <mxGeometry width="50" height="50" relative="1" as="geometry">
            <mxPoint x="70" y="530" as="sourcePoint" />
            <mxPoint x="120" y="480" as="targetPoint" />
          </mxGeometry>
        </mxCell>
        <mxCell id="OwYhQeOUN2ve-CkDYoAG-83" value="" style="endArrow=none;html=1;rounded=0;entryX=0.82;entryY=0.996;entryDx=0;entryDy=0;entryPerimeter=0;exitX=0.214;exitY=0.072;exitDx=0;exitDy=0;exitPerimeter=0;" edge="1" parent="1" source="OwYhQeOUN2ve-CkDYoAG-50" target="OwYhQeOUN2ve-CkDYoAG-47">
          <mxGeometry width="50" height="50" relative="1" as="geometry">
            <mxPoint x="140" y="570" as="sourcePoint" />
            <mxPoint x="190" y="520" as="targetPoint" />
          </mxGeometry>
        </mxCell>
        <mxCell id="OwYhQeOUN2ve-CkDYoAG-84" value="" style="endArrow=none;html=1;rounded=0;entryX=0.012;entryY=0.364;entryDx=0;entryDy=0;entryPerimeter=0;" edge="1" parent="1" target="OwYhQeOUN2ve-CkDYoAG-51">
          <mxGeometry width="50" height="50" relative="1" as="geometry">
            <mxPoint x="150" y="480" as="sourcePoint" />
            <mxPoint x="200" y="430" as="targetPoint" />
          </mxGeometry>
        </mxCell>
        <mxCell id="OwYhQeOUN2ve-CkDYoAG-85" value="" style="endArrow=none;html=1;rounded=0;entryX=0;entryY=0.5;entryDx=0;entryDy=0;exitX=0.997;exitY=0.455;exitDx=0;exitDy=0;exitPerimeter=0;" edge="1" parent="1" source="OwYhQeOUN2ve-CkDYoAG-47" target="OwYhQeOUN2ve-CkDYoAG-52">
          <mxGeometry width="50" height="50" relative="1" as="geometry">
            <mxPoint x="160" y="540" as="sourcePoint" />
            <mxPoint x="210" y="490" as="targetPoint" />
          </mxGeometry>
        </mxCell>
        <mxCell id="OwYhQeOUN2ve-CkDYoAG-86" value="" style="endArrow=none;html=1;rounded=0;exitX=1;exitY=0.5;exitDx=0;exitDy=0;" edge="1" parent="1" source="OwYhQeOUN2ve-CkDYoAG-87">
          <mxGeometry width="50" height="50" relative="1" as="geometry">
            <mxPoint x="270" y="700" as="sourcePoint" />
            <mxPoint x="490" y="560" as="targetPoint" />
            <Array as="points" />
          </mxGeometry>
        </mxCell>
        <mxCell id="OwYhQeOUN2ve-CkDYoAG-88" value="" style="endArrow=none;html=1;rounded=0;exitX=0.666;exitY=-0.016;exitDx=0;exitDy=0;exitPerimeter=0;" edge="1" parent="1" source="OwYhQeOUN2ve-CkDYoAG-53" target="OwYhQeOUN2ve-CkDYoAG-87">
          <mxGeometry width="50" height="50" relative="1" as="geometry">
            <mxPoint x="360" y="639" as="sourcePoint" />
            <mxPoint x="490" y="560" as="targetPoint" />
            <Array as="points">
              <mxPoint x="360" y="560" />
            </Array>
          </mxGeometry>
        </mxCell>
        <mxCell id="OwYhQeOUN2ve-CkDYoAG-87" value="tienen" style="rhombus;whiteSpace=wrap;html=1;strokeColor=#FF9933;shadow=1;fillColor=#FFCC99;" vertex="1" parent="1">
          <mxGeometry x="320" y="534" width="80" height="50" as="geometry" />
        </mxCell>
        <mxCell id="OwYhQeOUN2ve-CkDYoAG-93" value="venden" style="rhombus;whiteSpace=wrap;html=1;strokeColor=#FF9933;shadow=1;fillColor=#FFCC99;" vertex="1" parent="1">
          <mxGeometry x="220" y="310" width="80" height="50" as="geometry" />
        </mxCell>
        <mxCell id="OwYhQeOUN2ve-CkDYoAG-94" value="" style="endArrow=none;html=1;rounded=0;exitX=1;exitY=0.5;exitDx=0;exitDy=0;" edge="1" parent="1" source="OwYhQeOUN2ve-CkDYoAG-93">
          <mxGeometry width="50" height="50" relative="1" as="geometry">
            <mxPoint x="300" y="330" as="sourcePoint" />
            <mxPoint x="440" y="280" as="targetPoint" />
            <Array as="points">
              <mxPoint x="440" y="335" />
            </Array>
          </mxGeometry>
        </mxCell>
        <mxCell id="OwYhQeOUN2ve-CkDYoAG-95" value="" style="endArrow=none;html=1;rounded=0;entryX=0;entryY=0.5;entryDx=0;entryDy=0;exitX=0.67;exitY=-0.001;exitDx=0;exitDy=0;exitPerimeter=0;" edge="1" parent="1" source="OwYhQeOUN2ve-CkDYoAG-47" target="OwYhQeOUN2ve-CkDYoAG-93">
          <mxGeometry width="50" height="50" relative="1" as="geometry">
            <mxPoint x="60" y="380" as="sourcePoint" />
            <mxPoint x="110" y="330" as="targetPoint" />
            <Array as="points">
              <mxPoint x="120" y="335" />
            </Array>
          </mxGeometry>
        </mxCell>
      </root>
    </mxGraphModel>
  </diagram>
</mxfile>
